<svg width="73" height="73" viewBox="0 0 73 73" fill="none" xmlns="http://www.w3.org/2000/svg">
<path d="M38.3981 12.1424C38.3981 11.8399 38.2779 11.5497 38.064 11.3358C37.8501 11.1219 37.56 11.0017 37.2574 11.0017H20.1481C19.8456 11.0017 19.5554 11.1219 19.3415 11.3358C19.1276 11.5497 19.0074 11.8399 19.0074 12.1424V39.5288C19.0074 39.8313 19.1276 40.1214 19.3415 40.3353C19.5554 40.5492 19.8456 40.6694 20.1481 40.6694H52.8555C53.158 40.6694 53.4481 40.5492 53.662 40.3353C53.8759 40.1214 53.9961 39.8313 53.9961 39.5288V25.8356C53.9961 25.5331 53.8759 25.2429 53.662 25.029C53.4481 24.8151 53.158 24.6949 52.8555 24.6949H38.3981V12.1424ZM36.1168 38.3881H21.2887V33.8256H36.1168V38.3881ZM36.1168 31.5444H21.2887V26.9819H36.1168V31.5444ZM36.1168 24.7006H21.2887V20.1381H36.1168V24.7006ZM36.1168 17.8569H21.2887V13.2944H36.1168V17.8569ZM51.7149 38.3881H38.3981V33.8256H51.7149V38.3881ZM51.7149 26.9762V31.5387H38.3981V26.9762H51.7149Z" fill="#AFBED0"/>
<path d="M61.5938 49.8111V19.8195L61.2595 19.4853L44.96 3.18577L44.6258 2.85156H15.9688C14.7587 2.85156 13.5982 3.33225 12.7426 4.18789C11.8869 5.04352 11.4062 6.20401 11.4062 7.41406V45.901C11.0604 46.0995 10.773 46.3855 10.5727 46.7303C10.3725 47.0751 10.2666 47.4665 10.2656 47.8652V64.4453C10.2674 65.9573 10.8689 67.4069 11.938 68.476C13.0072 69.5452 14.4567 70.1466 15.9688 70.1484H57.0312C58.5433 70.1466 59.9928 69.5452 61.062 68.476C62.1311 67.4069 62.7326 65.9573 62.7344 64.4453V51.7764C62.7336 51.3775 62.6278 50.9858 62.4275 50.6408C62.2273 50.2958 61.9397 50.0096 61.5938 49.8111ZM26.2549 65.1662L24.7082 62.0044L23.1615 65.1662H20.7662L23.5174 59.9513L20.9305 54.9781H23.3258L24.7082 57.8388L26.0907 54.9781H28.486L25.899 59.9513L28.6502 65.1662H26.2549ZM35.9046 65.1662H29.4281V54.9781H31.6067V63.3047H35.9046V65.1662ZM42.9673 64.5092C42.1948 65.0825 41.2449 65.3653 40.2846 65.3076C39.5234 65.3028 38.7765 65.1 38.1174 64.7191C37.7491 64.5225 37.4198 64.2605 37.1456 63.9457C36.8443 63.5817 36.6014 63.1731 36.4259 62.7344L38.2509 61.9359C38.3537 62.1609 38.4726 62.3782 38.6067 62.5861C38.7276 62.7734 38.8756 62.9418 39.0459 63.0857C39.2155 63.2258 39.4086 63.3347 39.6162 63.4073C39.8514 63.4877 40.0988 63.5263 40.3473 63.5214C40.5357 63.5217 40.7237 63.5034 40.9085 63.4667C41.0802 63.4345 41.2448 63.3719 41.3944 63.2819C41.538 63.1957 41.6561 63.0729 41.7366 62.926C41.8244 62.7491 41.8667 62.5531 41.8598 62.3557C41.8546 62.181 41.8037 62.0108 41.7123 61.8619C41.6208 61.713 41.492 61.5907 41.3385 61.5071C40.9059 61.2267 40.4424 60.9971 39.9572 60.8227C39.1073 60.534 38.3078 60.1137 37.5882 59.5771C37.3138 59.3388 37.0973 59.0412 36.9551 58.7068C36.8128 58.3725 36.7484 58.0101 36.7669 57.6472C36.7602 57.2604 36.8433 56.8774 37.0098 56.5283C37.1762 56.1791 37.4215 55.8734 37.7262 55.6351C38.4031 55.0904 39.2531 54.8071 40.1215 54.8367C40.8849 54.8247 41.6362 55.0288 42.2887 55.4252C42.6117 55.6209 42.8984 55.8709 43.1362 56.1644C43.412 56.5148 43.6381 56.9017 43.808 57.3141L41.7948 57.9301C41.6543 57.574 41.4428 57.2504 41.1731 56.9788C40.881 56.7223 40.4992 56.5919 40.1112 56.6161C39.9617 56.6165 39.8126 56.6326 39.6664 56.664C39.5227 56.6934 39.3843 56.7441 39.2558 56.8145C39.1248 56.8855 39.0163 56.9917 38.9425 57.1211C38.8687 57.2505 38.8326 57.398 38.8383 57.5468C38.8401 57.6893 38.8855 57.8278 38.9683 57.9437C39.0872 58.099 39.2396 58.2254 39.4143 58.3133C39.8882 58.5756 40.3844 58.7955 40.8971 58.9703C41.6476 59.2212 42.3508 59.5959 42.9776 60.079C43.3002 60.3235 43.5577 60.6438 43.7272 61.0114C43.8966 61.379 43.973 61.7827 43.9494 62.1869C43.9725 62.6231 43.896 63.0588 43.7259 63.4612C43.5558 63.8635 43.2964 64.2219 42.9673 64.5092ZM49.8385 65.1662L48.2918 62.0044L46.7451 65.1662H44.3498L47.101 59.9513L44.514 54.9781H46.9093L48.2918 57.8388L49.6742 54.9781H52.0695L49.4826 59.9513L52.2338 65.1662H49.8385ZM59.3125 49.4951H34.3168L31.5793 46.363C31.3652 46.1183 31.1013 45.9222 30.8053 45.7878C30.5092 45.6535 30.1878 45.584 29.8627 45.5839H13.6875V7.41406C13.6875 6.80904 13.9278 6.22879 14.3557 5.80098C14.7835 5.37316 15.3637 5.13281 15.9688 5.13281H43.013V16.8698C43.013 18.0799 43.4937 19.2404 44.3493 20.096C45.2049 20.9517 46.3654 21.4323 47.5755 21.4323H59.3125V49.4951Z" fill="#AFBED0"/>
</svg>
