<svg width="73" height="73" viewBox="0 0 73 73" fill="none" xmlns="http://www.w3.org/2000/svg">
<path d="M38.3981 12.1424C38.3981 11.8399 38.2779 11.5497 38.064 11.3358C37.8501 11.1219 37.56 11.0017 37.2574 11.0017H20.1481C19.8456 11.0017 19.5554 11.1219 19.3415 11.3358C19.1276 11.5497 19.0074 11.8399 19.0074 12.1424V39.5288C19.0074 39.8313 19.1276 40.1214 19.3415 40.3353C19.5554 40.5492 19.8456 40.6694 20.1481 40.6694H52.8555C53.158 40.6694 53.4481 40.5492 53.662 40.3353C53.8759 40.1214 53.9961 39.8313 53.9961 39.5288V25.8356C53.9961 25.5331 53.8759 25.2429 53.662 25.029C53.4481 24.8151 53.158 24.6949 52.8555 24.6949H38.3981V12.1424ZM36.1168 38.3881H21.2887V33.8256H36.1168V38.3881ZM36.1168 31.5444H21.2887V26.9819H36.1168V31.5444ZM36.1168 24.7006H21.2887V20.1381H36.1168V24.7006ZM36.1168 17.8569H21.2887V13.2944H36.1168V17.8569ZM51.7149 38.3881H38.3981V33.8256H51.7149V38.3881ZM51.7149 26.9762V31.5387H38.3981V26.9762H51.7149Z" fill="#AFBED0"/>
<path d="M61.5938 49.8111V19.8195L61.2595 19.4853L44.96 3.18577L44.6258 2.85156H15.9688C14.7587 2.85156 13.5982 3.33225 12.7426 4.18789C11.8869 5.04352 11.4062 6.20401 11.4062 7.41406V45.901C11.0604 46.0995 10.773 46.3855 10.5727 46.7303C10.3725 47.0751 10.2666 47.4665 10.2656 47.8652V64.4453C10.2674 65.9573 10.8689 67.4069 11.938 68.476C13.0072 69.5452 14.4567 70.1466 15.9688 70.1484H57.0312C58.5433 70.1466 59.9928 69.5452 61.062 68.476C62.1311 67.4069 62.7326 65.9573 62.7344 64.4453V51.7764C62.7336 51.3775 62.6278 50.9858 62.4275 50.6408C62.2273 50.2958 61.9397 50.0096 61.5938 49.8111ZM31.9375 63.778C31.7081 64.1077 31.4237 64.3955 31.0969 64.629C30.3896 65.1008 29.5511 65.3367 28.7015 65.3031C28.0284 65.3246 27.361 65.1738 26.7625 64.8651C26.2492 64.5866 25.8136 64.1843 25.4952 63.6948C25.1688 63.1837 24.937 62.6181 24.8109 62.0249C24.531 60.742 24.531 59.4138 24.8109 58.1308C24.9375 57.534 25.173 56.9656 25.5055 56.4541C25.8277 55.9653 26.2652 55.5634 26.7796 55.2838C27.3781 54.9751 28.0456 54.8243 28.7187 54.8458C29.4872 54.8307 30.2451 55.0281 30.9087 55.4161C31.2465 55.6235 31.5303 55.9081 31.7367 56.2465C32.0056 56.6946 32.211 57.1779 32.347 57.6825L30.3486 58.1616C30.2225 57.7765 30.0169 57.4221 29.7452 57.1214C29.6022 56.9792 29.4307 56.8691 29.2419 56.7983C29.0531 56.7275 28.8514 56.6977 28.6502 56.7107C28.3999 56.7054 28.1524 56.7647 27.9316 56.883C27.7293 56.9958 27.5541 57.1515 27.4183 57.3392C27.2771 57.5361 27.1642 57.7519 27.083 57.9803C26.996 58.2205 26.9296 58.4678 26.8845 58.7194C26.8394 58.9678 26.8096 59.2189 26.7956 59.471C26.783 59.7197 26.7762 59.9444 26.7762 60.1474C26.7254 61.0022 26.8902 61.856 27.2552 62.6306C27.3914 62.8927 27.601 63.1094 27.8586 63.2541C28.1161 63.3988 28.4103 63.4651 28.705 63.445C28.9359 63.4493 29.1657 63.4107 29.3825 63.3309C29.5638 63.2618 29.7294 63.1571 29.8695 63.023C30.0122 62.8821 30.136 62.7234 30.238 62.5507C30.3544 62.3562 30.4595 62.1551 30.5528 61.9485L32.6059 62.4823C32.4365 62.9397 32.2121 63.3749 31.9375 63.778ZM39.5409 64.5092C38.7687 65.0824 37.8192 65.3651 36.8593 65.3076C36.0981 65.3029 35.3512 65.1001 34.6921 64.7191C34.3238 64.5225 33.9945 64.2605 33.7203 63.9457C33.4174 63.5823 33.1733 63.1735 32.9971 62.7344L34.8221 61.9359C34.9254 62.1607 35.0443 62.378 35.178 62.5861C35.2982 62.7739 35.4463 62.9424 35.6172 63.0857C35.7866 63.226 35.9797 63.3349 36.1875 63.4073C36.4227 63.4877 36.6701 63.5263 36.9186 63.5214C37.1074 63.5217 37.2957 63.5033 37.4809 63.4667C37.6522 63.4343 37.8164 63.3718 37.9657 63.2819C38.1071 63.1952 38.2229 63.0723 38.301 62.926C38.3903 62.7495 38.4331 62.5533 38.4254 62.3557C38.4202 62.1812 38.3694 62.011 38.2782 61.8622C38.187 61.7133 38.0584 61.5909 37.9052 61.5071C37.4721 61.2269 37.0082 60.9973 36.5228 60.8227C35.6732 60.534 34.8741 60.1137 34.1549 59.5771C33.8804 59.3389 33.6636 59.0414 33.5212 58.707C33.3787 58.3726 33.3142 58.0102 33.3325 57.6472C33.3258 57.2604 33.4089 56.8774 33.5754 56.5283C33.7418 56.1791 33.9871 55.8734 34.2917 55.6351C34.9687 55.0904 35.8187 54.8071 36.6871 54.8367C37.4505 54.8249 38.2017 55.0289 38.8542 55.4252C39.1773 55.6209 39.464 55.8709 39.7017 56.1644C39.9776 56.5148 40.2037 56.9017 40.3736 57.3141L38.3604 57.9301C38.2204 57.5735 38.0084 57.2497 37.7376 56.9788C37.4463 56.7224 37.0652 56.5919 36.6779 56.6161C36.528 56.6165 36.3785 56.6326 36.232 56.664C36.0886 56.6932 35.9506 56.7439 35.8225 56.8145C35.6913 56.8853 35.5826 56.9915 35.5086 57.1209C35.4346 57.2503 35.3983 57.3978 35.4039 57.5468C35.4056 57.6895 35.4514 57.8281 35.535 57.9437C35.6532 58.0988 35.8049 58.2251 35.9787 58.3133C36.4529 58.5752 36.9491 58.795 37.4615 58.9703C38.2119 59.2215 38.9151 59.5962 39.542 60.079C39.8647 60.3235 40.1221 60.6438 40.2916 61.0114C40.4611 61.379 40.5374 61.7827 40.5139 62.1869C40.538 62.6226 40.4628 63.0581 40.2938 63.4604C40.1249 63.8627 39.8666 64.2214 39.5386 64.5092H39.5409ZM46.0288 65.1662H43.7019L41.0032 54.9781H43.1784L44.8266 61.8401L46.5466 54.9781H48.7366L46.0288 65.1662ZM59.3125 49.4951H34.3168L31.5793 46.363C31.3652 46.1183 31.1013 45.9222 30.8053 45.7878C30.5092 45.6535 30.1878 45.584 29.8627 45.5839H13.6875V7.41406C13.6875 6.80904 13.9278 6.22879 14.3557 5.80098C14.7835 5.37316 15.3637 5.13281 15.9688 5.13281H43.013V16.8698C43.013 18.0799 43.4937 19.2404 44.3493 20.096C45.2049 20.9517 46.3654 21.4323 47.5755 21.4323H59.3125V49.4951Z" fill="#AFBED0"/>
</svg>
